<?xml version="1.0" encoding="UTF-8"?>
<svg id="Navy" xmlns="http://www.w3.org/2000/svg" viewBox="0 0 500 500">
  <defs>
    <style>
      .cls-1 {
        fill: none;
        stroke: #4a12f0;
        stroke-linecap: round;
        stroke-linejoin: round;
        stroke-width: 10px;
      }
    </style>
  </defs>
  <g>
    <path class="cls-1" d="M250,170.26c-44.04,0-79.74,35.7-79.74,79.74s35.7,79.74,79.74,79.74,79.74-35.7,79.74-79.74"/>
    <path class="cls-1" d="M384.36,267.22l.23-32.58-12.14-6.62c-8.17-4.45-14.44-11.66-17.93-20.28-.03-.08-.07-.17-.1-.25-3.52-8.64-4.07-18.2-1.32-27.11l4.09-13.21-22.88-23.19-13.27,3.9c-8.95,2.63-18.5,1.95-27.09-1.69-.08-.04-.17-.07-.25-.11-8.57-3.61-15.69-9.98-20.03-18.21l-6.45-12.23-32.58-.23-6.62,12.14c-4.45,8.17-11.66,14.44-20.28,17.93-.08.03-.17.07-.25.1-8.64,3.52-18.2,4.07-27.11,1.32l-13.21-4.09-23.19,22.88,3.9,13.27c2.63,8.95,1.95,18.5-1.69,27.09-.04.08-.07.17-.11.25-3.61,8.57-9.98,15.69-18.21,20.03l-12.23,6.45-.23,32.58,12.14,6.62c8.17,4.45,14.44,11.66,17.93,20.28.03.08.07.17.1.25,3.52,8.64,4.07,18.2,1.32,27.11l-4.09,13.21,22.88,23.19,13.27-3.9c8.95-2.63,18.5-1.95,27.09,1.69.08.04.17.07.25.11,8.57,3.61,15.69,9.98,20.03,18.21l6.45,12.23,32.58.23,6.62-12.14c4.45-8.17,11.66-14.44,20.28-17.93.08-.03.17-.07.25-.1,8.64-3.52,18.2-4.07,27.11-1.32l13.21,4.09,23.19-22.88-3.9-13.27c-2.63-8.95-1.95-18.5,1.69-27.09.04-.08.07-.17.11-.25,3.61-8.57,9.98-15.69,18.21-20.03l12.23-6.45Z"/>
  </g>
  <g>
    <polyline class="cls-1" points="233.4 273.95 212.18 215.08 190.96 273.95"/>
    <line class="cls-1" x1="227.7" y1="261.42" x2="209.18" y2="261.42"/>
  </g>
  <path class="cls-1" d="M251.93,273.95v-58.86h14.6c9.64,0,17.46,7.82,17.46,17.46h0c0,9.64-7.82,17.46-17.46,17.46h-11.1"/>
  <line class="cls-1" x1="304.58" y1="215.08" x2="304.58" y2="273.95"/>
</svg>